<svg xmlns="http://www.w3.org/2000/svg" width="221" height="38" viewBox="0 0 221 38" fill="none">
    <g id="Group 15"><g id="Group 13"><g id="full-rgb"><g id="logoMark"><path id="logoMark &lt;PathItem&gt;" d="M49.944 24.3496C49.9424 22.1795 49.071 20.0981 47.52 18.5595C45.969 17.0209 43.8642 16.15 41.6648 16.1367H24.9727V32.6063L41.6648 32.5613C43.8618 32.5411 45.9623 31.668 47.5118 30.1312C49.0612 28.5943 49.935 26.5173 49.944 24.3495V24.3496Z" fill="#6C87F0"></path><path id="logoMark &lt;PathItem&gt;_2" d="M0 24.3496C0.00164714 22.1795 0.873035 20.0981 2.42406 18.5595C3.97509 17.0209 6.07987 16.15 8.27923 16.1367H24.9714V32.6063L8.27923 32.5613C6.08228 32.5411 3.98176 31.6681 2.43229 30.1312C0.882808 28.5944 0.0090092 26.5173 0 24.3496H0Z" fill="#FC58AF"></path><path id="logoMark &lt;PathItem&gt;_3" d="M9.59476 17.39L15.4692 23.1862L24.9711 32.5614L36.7307 20.9586L34.1165 18.3793L27.2289 11.5833L21.3544 5.7872C19.7933 4.25654 17.6809 3.39895 15.48 3.40235C13.2792 3.40576 11.1695 4.26989 9.61327 5.80536C8.05703 7.34083 7.18121 9.42241 7.17774 11.5939C7.17428 13.7654 8.04344 15.8497 9.59476 17.39Z" fill="#0066FF"></path><path id="logoMark &lt;PathItem&gt;_4" d="M40.347 17.3906L34.4724 23.1867L24.9706 32.5619L13.2109 20.9592L15.8251 18.3799L22.7126 11.5841L28.5871 5.78791C29.3586 5.0231 30.2754 4.41595 31.285 4.00124C32.2947 3.58652 33.3773 3.37239 34.4709 3.3711C35.5645 3.36981 36.6477 3.58139 37.6583 3.99372C38.669 4.40605 39.5873 5.01103 40.3606 5.77402C41.1339 6.53701 41.7471 7.44302 42.165 8.44018C42.583 9.43733 42.7975 10.506 42.7962 11.5851C42.7949 12.6641 42.5779 13.7323 42.1577 14.7285C41.7374 15.7247 41.1221 16.6293 40.347 17.3906Z" fill="#42CFFC"></path></g><g id="type"><path id="type &lt;PathItem&gt;" d="M111.84 8.65921C111.529 8.52373 111.195 8.44995 110.855 8.44211C110.516 8.43426 110.178 8.4925 109.861 8.61349C109.545 8.73449 109.255 8.91587 109.01 9.14726C108.764 9.37866 108.567 9.65554 108.43 9.96208L103.651 18.154L98.872 9.96208C98.5911 9.34897 98.076 8.87018 97.439 8.62994C96.802 8.38969 96.0946 8.40745 95.4708 8.67934C94.847 8.95123 94.3572 9.45523 94.1082 10.0817C93.8592 10.7081 93.8711 11.4062 94.1412 12.024L103.651 27.5111L113.161 12.0242C113.298 11.7177 113.373 11.3875 113.381 11.0525C113.388 10.7175 113.329 10.3843 113.207 10.0718C113.084 9.75932 112.9 9.47375 112.666 9.23137C112.431 8.989 112.151 8.79458 111.84 8.65921Z" fill="#3E3E3E"></path><path id="type &lt;CompoundPathItem&gt;" d="M169.434 8.30859C163.972 8.30859 159.529 12.5635 159.529 17.7935C159.529 23.0236 163.972 27.2785 169.434 27.2785C174.895 27.2785 179.338 23.0236 179.338 17.7935C179.338 12.5635 174.895 8.30859 169.434 8.30859ZM169.434 22.1756C166.82 22.1756 164.701 20.2137 164.701 17.7935C164.701 15.3734 166.82 13.4115 169.434 13.4115C172.047 13.4115 174.166 15.3734 174.166 17.7935C174.166 20.2137 172.047 22.1756 169.434 22.1756Z" fill="#3E3E3E"></path><path id="type &lt;CompoundPathItem&gt;_2" d="M215.826 0.5V9.90301C214.212 8.89183 212.338 8.35602 210.426 8.35846C204.965 8.35846 200.521 12.6135 200.521 17.8434C200.521 23.0733 204.964 27.3284 210.426 27.3284C212.42 27.3319 214.371 26.75 216.029 25.6566C216.261 26.1992 216.676 26.646 217.204 26.9212C217.731 27.1963 218.339 27.2829 218.924 27.1662C219.509 27.0495 220.036 26.7367 220.414 26.2809C220.792 25.825 220.998 25.2543 220.998 24.6653V0.5H215.826ZM210.426 22.2255C207.812 22.2255 205.693 20.2636 205.693 17.8434C205.693 15.4233 207.812 13.4614 210.426 13.4614C213.039 13.4614 215.158 15.4233 215.158 17.8434C215.158 20.2636 213.039 22.2255 210.426 22.2255Z" fill="#3E3E3E"></path><path id="type &lt;PathItem&gt;_2" d="M155.354 0.5C154.668 0.5 154.01 0.768821 153.525 1.24733C153.04 1.72583 152.768 2.37482 152.768 3.05153V27.2169H157.94V3.05145C157.94 2.37476 157.667 1.72579 157.182 1.2473C156.697 0.768811 156.039 0.5 155.354 0.5Z" fill="#3E3E3E"></path><path id="type &lt;PathItem&gt;_3" d="M89.9582 0.000210654C89.5971 -0.00431785 89.2389 0.0642105 88.9057 0.201567C88.5725 0.338923 88.2714 0.542193 88.0209 0.798832C87.7608 1.04603 87.5547 1.34322 87.4155 1.67206C87.2763 2.00089 87.2068 2.35439 87.2115 2.71074C87.2041 3.07674 87.2745 3.4402 87.4181 3.77776C87.5617 4.11531 87.7752 4.41948 88.0451 4.67072C88.3014 4.92663 88.6071 5.12917 88.9442 5.26636C89.2813 5.40355 89.6428 5.47259 90.0074 5.46939C90.3686 5.47388 90.7268 5.40533 91.0601 5.26797C91.3933 5.13061 91.6945 4.92735 91.9451 4.67072C92.2086 4.41589 92.4163 4.11051 92.5555 3.77342C92.6947 3.43632 92.7625 3.07466 92.7546 2.71074C92.7583 2.3523 92.6859 1.99707 92.5423 1.66782C92.3987 1.33857 92.1869 1.04258 91.9205 0.798832C91.6641 0.543011 91.3584 0.340522 91.0213 0.203347C90.6843 0.0661716 90.3228 -0.00290294 89.9582 0.000210654Z" fill="#3E3E3E"></path><path id="type &lt;PathItem&gt;_4" d="M89.9844 8.43945C89.2986 8.43945 88.6408 8.70827 88.1559 9.18678C87.6709 9.66528 87.3984 10.3143 87.3984 10.991V16.4455C87.3984 16.5193 87.4142 16.5887 87.4204 16.6609H87.3984V27.2184H92.5704V16.6609H92.5485C92.5547 16.5887 92.5704 16.5193 92.5704 16.4455V10.991C92.5704 10.3143 92.298 9.66528 91.813 9.18678C91.3281 8.70827 90.6703 8.43945 89.9844 8.43945Z" fill="#3E3E3E"></path><path id="type &lt;PathItem&gt;_5" d="M143.738 13.4118C144.487 13.4039 145.227 13.5649 145.903 13.8824C146.579 14.1999 147.173 14.6657 147.639 15.244L151.704 12.0889C150.756 10.9018 149.545 9.94419 148.165 9.28906C146.784 8.63394 145.27 8.29866 143.738 8.30882C138.214 8.30882 133.719 12.6144 133.719 17.9073C133.719 23.2002 138.214 27.5056 143.738 27.5056C146.161 27.5099 148.506 26.6614 150.352 25.1125C150.61 24.8949 150.823 24.6292 150.977 24.3306C151.131 24.032 151.224 23.7064 151.25 23.3724C151.277 23.0384 151.236 22.7025 151.131 22.3838C151.026 22.0652 150.859 21.7701 150.638 21.5154C150.418 21.2607 150.148 21.0513 149.846 20.8993C149.543 20.7473 149.213 20.6556 148.875 20.6294C148.536 20.6032 148.196 20.643 147.873 20.7466C147.55 20.8503 147.251 21.0156 146.992 21.2333C146.083 21.9927 144.929 22.4073 143.738 22.4027C141.065 22.4027 138.891 20.3862 138.891 17.9072C138.891 15.4281 141.065 13.4118 143.738 13.4118Z" fill="#3E3E3E"></path><path id="type &lt;PathItem&gt;_6" d="M193.837 19.0372C193.837 20.0617 193.529 20.8695 192.912 21.4607C192.295 22.0524 191.341 22.3483 190.051 22.3484C188.732 22.3484 187.765 22.0454 187.148 21.4393C186.835 21.1199 186.591 20.7406 186.432 20.3247C186.273 19.9089 186.202 19.4653 186.223 19.0213V8.66016H181.051V19.0213C181.027 20.1386 181.231 21.2492 181.652 22.2866C182.074 23.324 182.703 24.2669 183.502 25.0587C185.115 26.6447 187.32 27.4514 190.051 27.4514C192.727 27.4514 194.902 26.6673 196.515 25.121C197.654 24.028 199.009 22.0875 199.009 19.0372V8.66016H193.837V19.0372Z" fill="#3E3E3E"></path><path id="type &lt;CompoundPathItem&gt;_3" d="M82.4142 8.72288C81.9627 8.72388 81.5193 8.84202 81.1286 9.06547C80.738 9.28892 80.4137 9.60981 80.1884 9.99594C78.6366 9.08902 76.866 8.61077 75.0624 8.61133C69.6012 8.61133 65.1582 12.8663 65.1582 18.0963C65.1582 23.3263 69.6012 27.5813 75.0624 27.5813C76.725 27.5837 78.3623 27.18 79.8283 26.4064V28.0926C79.829 29.1698 79.4546 30.2145 78.7678 31.0519C78.081 31.8892 77.1235 32.4684 76.0556 32.6924C74.9878 32.9165 73.8743 32.7717 72.9016 32.2825C71.929 31.7933 71.1562 30.9892 70.7126 30.0049L66.9414 33.7258C68.1256 35.3938 69.8077 36.6559 71.7532 37.3361C73.6987 38.0162 75.8108 38.0807 77.7952 37.5205C79.7797 36.9603 81.5376 35.8033 82.824 34.2108C84.1105 32.6182 84.8615 30.6693 84.9723 28.6357H85.0002V11.2743C85.0002 10.5976 84.7277 9.94868 84.2428 9.4702C83.7578 8.99171 83.1001 8.72289 82.4142 8.72288ZM75.0624 22.4784C72.4488 22.4784 70.3301 20.5164 70.3301 18.0963C70.3301 15.6762 72.4488 13.7143 75.0624 13.7143C77.676 13.7143 79.7948 15.6762 79.7948 18.0963C79.7948 20.5164 77.676 22.4784 75.0624 22.4784Z" fill="#3E3E3E"></path><path id="type &lt;CompoundPathItem&gt;_4" d="M132.477 18.0607C132.477 17.7304 132.46 17.4026 132.428 17.0776C132.418 16.9744 132.397 16.8748 132.384 16.7726C132.356 16.5536 132.329 16.3342 132.287 16.1183C132.259 15.9806 132.22 15.8481 132.187 15.7126C132.145 15.5379 132.108 15.362 132.056 15.1896C132.005 15.0215 131.941 14.86 131.882 14.6959C131.836 14.5669 131.798 14.4355 131.744 14.3088C130.311 10.7889 126.927 8.30859 122.988 8.30859C117.758 8.30859 113.504 12.6782 113.498 18.0607C113.511 19.9555 114.11 21.8012 115.215 23.3511C115.761 24.1053 116.408 24.7827 117.139 25.3648C117.873 25.9311 118.68 26.3984 119.539 26.7545C121.258 27.4466 123.135 27.6646 124.97 27.3854C126.809 27.1023 128.53 26.3183 129.941 25.1216C130.408 24.7228 130.697 24.1576 130.743 23.5495C130.79 22.9414 130.591 22.3398 130.189 21.8762C129.788 21.4125 129.217 21.1245 128.601 21.0751C127.985 21.0256 127.374 21.2187 126.902 21.6122C126.147 22.2299 125.233 22.628 124.263 22.7617C123.289 22.8925 122.299 22.7628 121.394 22.3862C120.954 22.1927 120.541 21.9451 120.165 21.6494C119.803 21.3475 119.482 21.0012 119.21 20.6189C119.062 20.3956 118.933 20.1602 118.826 19.9152L124.131 19.8556C126.428 19.8297 128.725 19.8039 131.022 19.778C131.79 19.7685 132.477 19.7463 132.477 18.7864L132.477 18.0607ZM118.675 15.685C119.516 13.9543 121.168 12.8792 122.988 12.8792C123.876 12.8952 124.743 13.1531 125.492 13.6245C126.241 14.0959 126.844 14.7625 127.233 15.5506L127.447 15.9594L118.473 16.1011L118.675 15.685Z" fill="#3E3E3E"></path></g></g></g></g>
</svg>
